<svg viewBox="0 0 400 474" xmlns="http://www.w3.org/2000/svg" xmlns:xlink="http://www.w3.org/1999/xlink"><symbol id="a" viewBox="0 0 92 55.69"><path d="m0 0 48.73 27.84-48.73 27.85z" fill="#3b5997"/><path d="m92 0-48.73 27.84 48.73 27.85z" fill="#3b5997"/></symbol><g opacity=".6"><circle cx="313.58" cy="88.29" fill="#c98bd8" r="54.31"/><path d="m269.26 77.39a54.06 54.06 0 0 1 9.65-30.9 54.31 54.31 0 1 0 79.33 72.71 54.32 54.32 0 0 1 -89-41.81z" fill="#9643aa" opacity=".3"/><g fill="#832899"><circle cx="296.62" cy="61.46" opacity=".3" r="10.61"/><circle cx="344" cy="70.37" opacity=".3" r="7.49"/><circle cx="296.62" cy="108.17" opacity=".3" r="7.49"/><circle cx="347.3" cy="117.06" opacity=".3" r="4.19"/><circle cx="286.01" cy="96.48" opacity=".3" r="4.19"/><circle cx="332.31" cy="58.69" opacity=".3" r="4.19"/><circle cx="347.3" cy="104.48" opacity=".3" r="4.19"/></g></g><ellipse cx="194.71" cy="334.23" fill="#8a99aa" rx="75.3" ry="22.63"/><circle cx="191.88" cy="278.16" fill="#f3cbb6" r="77.62"/><ellipse cx="135.36" cy="274.47" fill="#f1c4c3" rx="16.34" ry="15.89"/><path d="m167.73 249.58c4.34 12.79.05 12-5.06 13.14 2 2.83 5.21 7.27 5.21 7.27" fill="none" stroke="#e29680" stroke-miterlimit="10" stroke-width="2.03"/><ellipse cx="270.9" cy="261.26" fill="#f3cbb6" rx="12.61" ry="17.91"/><path d="m276 253.09c-4.17-4.18-9.91 4.34-5.21 12.52" fill="none" stroke="#e29680" stroke-miterlimit="10" stroke-width="2.03"/><path d="m270.12 255.35c4.17 0 5.39 4.52 5.39 4.52" fill="none" stroke="#e29680" stroke-miterlimit="10" stroke-width="2.03"/><path d="m214.49 233.53c-15.19-4.4-23 2.67-23 2.67-2.94-6.84-2.41-9-2.41-9s17.25-6.36 25.41 6.33z" fill="#6f0c00"/><path d="m142.12 239c9.59-10.17 17.53-6.87 17.53-6.87-.06-7.44-1.15-9.23-1.15-9.23s-14.5 1.15-16.38 16.1z" fill="#6f0c00"/><path d="m132.76 292.33c53 11.64 72.81-29.62 72.81-29.62" fill="none" stroke="#e29680" stroke-miterlimit="10" stroke-width="2.03"/><path d="m193.64 251.63c-.66 5.57 5.48 10.88 13.71 11.85 5.89.7 11.26-1 14.08-4.09" fill="none" stroke="#e29680" stroke-miterlimit="10" stroke-width="2.03"/><g fill="#6f0c00"><path d="m163.78 274.49c17.12-17 71.34 11.93 89.4 5.51s9.39-19.27 0-16.82c9-4.59 36.75 10.39 14.4 41s-90.67 28.95-103.8 11.62c-11.36-15-13.52-27.8 0-41.31z"/><path d="m167.55 274.49c-9.79-17-40.81 11.93-51.14 5.51s-5.37-19.27 0-16.82c-5.16-4.59-21 10.39-8.24 41s51.87 28.95 59.38 11.62c6.45-15 7.73-27.8 0-41.31z"/><path d="m117.52 262.51c7.35 4.48 1.33 13.47-2.62 10 5.21 2.13 5.28-12.84-3.57-8.22.99-2.29 4.54-2.47 6.19-1.78z"/><path d="m253.18 263.18c-9.68 4.48-1.76 13.47 3.44 10-6.85 2.13-7-12.84 4.7-8.22-1.32-2.28-5.97-2.47-8.14-1.78z"/></g><path d="m193.13 245.86c6.27-4.08 15-3.9 15-3.9" fill="none" stroke="#000" stroke-miterlimit="10" stroke-width="2.01"/><path d="m193.13 245.86c6.45-2.76 16.87 2.14 16.87 2.14" fill="none" stroke="#000" stroke-miterlimit="10" stroke-width="2.01"/><circle cx="151.7" cy="245.86" fill="#2b1b07" r="5.4"/><circle cx="151.7" cy="245.86" r="3.35"/><path d="m256.42 207.68h-.07.07c1.26-13.23-11.6-29-35.55-25.36-36.89 5.59-51.64 6.34-53.26-2.91-1.42-8.09 5.67-8.51 16.37-4.53-9.61-11-48.15-10.81-48.3 15.59a25.08 25.08 0 0 0 1.84 9.91c-9-.65-20.17 5.4-22.42 13.47-3.44 12.33 5.76 33.74 5.76 33.74 3.5 2 12.47-19.42 12.47-19.42 8.16 0 17.38-5.07 16.15-15.45 15.92 8.52 45.8 10.09 90.62 5.43l.32-.21c-3.61 4.12 7.49 25.33 16 22.52 0 0-.91 10.55 0 15.8l6.71-.91a42.33 42.33 0 0 1 0-8.11 18.84 18.84 0 0 1 5.83-3.65 8.66 8.66 0 0 1 .55-1.63c2.37-6.07 7.31-24.5-13.09-34.28z" fill="#6f0c00"/><path d="m135.68 190.47c.15-26.4 38.69-26.64 48.3-15.59-10.7-4-17.79-3.56-16.37 4.54.59 3.36 2.94 5.93 7.45 6.9" fill="#6f0c00"/><path d="m112.68 408.59c-23.59 0-42.81-7.22-57.23-21.53-28-27.77-25.26-71.7-25.13-73.55l35.68 2.49-17.85-1.25 17.85 1.19a82 82 0 0 0 1.43 18c1.57 8.27 5.15 19.8 13.31 27.83 8.75 8.6 21.45 12.12 38.83 10.76l2.79 35.67c-3.29.26-6.53.39-9.68.39z" fill="#d1dbe5"/><rect fill="#8a99aa" height="60.73" rx="13.99" transform="matrix(-1 0 0 -1 217.12 778.4)" width="27.98" x="94.57" y="358.84"/><path d="m234.7 358.42h56.3a9.05 9.05 0 0 1 9.05 9.05v56.26a9.05 9.05 0 0 1 -9.05 9.05h-43.28a22.08 22.08 0 0 1 -22.08-22.08v-43.23a9.05 9.05 0 0 1 9.06-9.05z" fill="#afbcc9" transform="matrix(-1 0 0 -1 525.65 791.2)"/><path d="m121.21 358.42h56.26a9.05 9.05 0 0 1 9.05 9.05v43.23a22.08 22.08 0 0 1 -22.08 22.08h-43.23a9.05 9.05 0 0 1 -9.05-9.05v-56.26a9.05 9.05 0 0 1 9.05-9.05z" fill="#afbcc9" transform="matrix(-1 0 0 -1 298.69 791.2)"/><path d="m143.32 358.42h98.54a3.41 3.41 0 0 1 3.42 3.37c.2 36.38 22 61.64 43.29 61.64h-14c1.28 0 16.32 1 16.32 2.31v45.86a16.89 16.89 0 0 1 -16.84 16.84l-147.87 5a16.88 16.88 0 0 1 -16.84-16.83l-4.57-50.93a2.37 2.37 0 0 1 2.17-2.37c20.48-1.65 30.87-26.5 32.94-61.73a3.42 3.42 0 0 1 3.44-3.16z" fill="#d1dbe5"/><path d="m58.51 235.32c-12.67-3.38-26.58 7.55-31.07 24.39a62.31 62.31 0 0 0 -1.54 8.4c-2.14 17.8.85 43 11.65 45.84 12.58 3.36 31-24.77 35.66-41.66 0-.12.07-.24.1-.36 4.49-16.84-2.14-33.24-14.8-36.61z" fill="#d1dbe5"/><path d="m83.87 277.6-23.16 20.74" fill="none" stroke="#8a99aa" stroke-linecap="round" stroke-miterlimit="10" stroke-width="15.43"/><ellipse cx="54.45" cy="294.85" fill="#8a99aa" rx="16.14" ry="12.48" transform="matrix(.98841455 -.15177837 .15177837 .98841455 -44.1 11.67)"/><path d="m65.69 312.37-36.04-2.34" fill="none" stroke="#afbcc9" stroke-linecap="round" stroke-miterlimit="10" stroke-width="12.63"/><rect fill="#afbcc9" height="50.32" rx="4.63" transform="matrix(-1 0 0 -1 367.7 855.74)" width="76.27" x="145.71" y="402.71"/><path d="m167.47 409.28h47.3v10.87h-47.3z" fill="#8a99aa" transform="matrix(-1 0 0 -1 382.23 829.43)"/><circle cx="156.8" cy="414.71" fill="#718dc8" r="5.44"/><circle cx="156.8" cy="430.68" fill="#718dc8" r="5.44"/><rect fill="#d1dbe5" height="16.03" rx="6.8" width="163.16" x="112.94" y="334.5"/><rect fill="#8a99aa" height="11.6" rx="5.09" width="145.56" x="117.78" y="350.53"/><use height="55.69" transform="matrix(.56999055 -.00328295 .00328295 .56999055 141.86 329.39)" width="92" xlink:href="#a"/><path d="m58.51 235.32c-12.67-3.38-26.58 7.55-31.07 24.39a62.31 62.31 0 0 0 -1.54 8.4l47.31 4.18c0-.12.07-.24.1-.36 4.49-16.84-2.14-33.24-14.8-36.61z" fill="#8a99aa"/><path d="m88.85 100s-11.22 10.2 5.07 24.61a1.06 1.06 0 0 0 1.76-.89c-.29-3.5.56-9.57 8.41-14" fill="#996629"/><path d="m130 130a10.61 10.61 0 1 0 15-15c-1.29-1.29-2.35-1.7-4.68-2.9 6.37-7.42 6.78-18.56-.28-25.62l-8.09-8.09c-7.44-7.44-20.4-7.59-27.76-.22l-19.19 19.06 35.1 35.11 7-7c1.11 2.23 1.58 3.33 2.86 4.61m11.14-11.26a5.46 5.46 0 0 1 .22 7.6 5.37 5.37 0 0 1 -9-4.54 4.82 4.82 0 0 1 1.45-3 4.84 4.84 0 0 1 3-1.44 5.18 5.18 0 0 1 4.37 1.43" fill="#3466b7"/><path d="m127.26 82.83a2.05 2.05 0 0 1 -2.7 1.06 17.11 17.11 0 0 0 -4.68-1.29 2 2 0 0 1 .52-4.06 20.73 20.73 0 0 1 5.8 1.6 2 2 0 0 1 .63.42 2 2 0 0 1 .43 2.27zm-13.18-2.14a2 2 0 0 1 -1.22 2.63 11.28 11.28 0 0 0 -4.2 2.63l-12.72 12.72a2 2 0 0 1 -2.94-2.89l12.72-12.73a15.61 15.61 0 0 1 5.69-3.58 2.06 2.06 0 0 1 2.16.48 2.08 2.08 0 0 1 .51.74z" fill="#fff" opacity=".3"/><path d="m117.45 56.65 44.04 44.04-2.71 5.97-47.3-47.3z" fill="#285ba5"/><circle cx="101.09" cy="134.26" fill="#996629" r="5.09"/><circle cx="88.75" cy="138.71" fill="#996629" r="2.84"/><rect fill="#6d7b89" height="47.89" rx="13.26" transform="matrix(-.97538082 -.2205272 .2205272 -.97538082 437.84 794.94)" width="32.21" x="247.17" y="349.09"/><circle cx="254.84" cy="379.54" fill="#8a99aa" r="4.33"/><circle cx="259.3" cy="359.8" fill="#8a99aa" r="4.33"/><path d="m363.72 314.47c-45.82-10.35-91.22 17.79-101.41 62.85a82.56 82.56 0 0 0 -2 17.47c-.36 38.68 26.68 73.87 66.55 82.88 44.35 10 88.29-16 100.31-58.54.4-1.42.77-2.85 1.1-4.3 10.16-45.07-18.73-90-64.55-100.36z" fill="#afbcc9"/><path d="m324.33 418.94a240.18 240.18 0 0 1 -64.05-24.15c-.36 38.68 26.68 73.87 66.55 82.88 44.35 10 88.29-16 100.31-58.54-29.01 7.77-65.14 8.32-102.81-.19z" fill="#8f99a3"/><path d="m382.42 336a72 72 0 0 0 -21.29-8.66c-39.56-8.94-87.09 17.81-89.32 62.06a59.1 59.1 0 0 0 1.91 19.6c6.54 22.59 28.65 30.82 60.37 38 39.57 8.94 69 6.86 81-25.2 12.53-33.6-4.66-68.8-32.67-85.8z" fill="#3c4054"/><path d="m405.07 407c10.11-25.9-1.41-53.35-22.65-71a72 72 0 0 0 -21.29-8.66c-39.56-8.94-87.09 17.81-89.32 62.06a59.1 59.1 0 0 0 1.91 19.6c11.18 9.16 28.42 14.38 50 19.26 40.22 9.11 69.98 7.86 81.35-21.26z" fill="#282433"/><path d="m287.57 386.39a24.74 24.74 0 0 1 -.05-3.44c.07-1.12.2-2.25.35-3.37a41.72 41.72 0 0 1 1.5-6.62 50.06 50.06 0 0 1 5.82-12.37 53.51 53.51 0 0 1 9.06-10.59c.88-.78 1.81-1.51 2.73-2.26s1.91-1.41 2.87-2.11 2-1.25 3-1.88 2.06-1.19 3.13-1.72a66.29 66.29 0 0 1 6.57-2.78 56.69 56.69 0 0 1 6.85-1.82 51.34 51.34 0 0 1 13.87-1 50.47 50.47 0 0 1 25.38 8.37l-.2 1c-2-.31-4.07-.65-6.11-.93s-4.1-.46-6.15-.55-4.1-.28-6.15-.19h-3.08l-3.06.23-1.54.12c-.5.05-1 .13-1.52.2l-3 .43-3 .63c-1 .18-2 .46-3 .74s-2 .51-2.93.87l-2.89 1c-1.88.79-3.78 1.55-5.57 2.52a60 60 0 0 0 -10.35 6.47 65.69 65.69 0 0 0 -8.88 8.45 69.73 69.73 0 0 0 -7.22 9.93 62.51 62.51 0 0 0 -5.5 11z" fill="#fff" opacity=".4"/><rect fill="#e7eef7" height="12.5" rx="6.25" transform="matrix(.97538082 .2205272 -.2205272 .97538082 109.22 -61.77)" width="153.62" x="254.53" y="452.22"/><rect fill="#3466b7" height="9.69" rx="4.85" transform="matrix(.97538082 .2205272 -.2205272 .97538082 111.55 -60.96)" width="137.05" x="260.37" y="464.45"/></svg>